<?xml version="1.0" encoding="UTF-8" standalone="no"?>
<!DOCTYPE svg PUBLIC "-//W3C//DTD SVG 1.1//EN"
 "http://www.w3.org/Graphics/SVG/1.1/DTD/svg11.dtd">
<!-- Generated by graphviz version 2.36.0 (20140111.2315)
 -->
<!-- Title: gtest Pages: 1 -->
<svg width="374pt" height="134pt"
 viewBox="0.00 0.00 374.00 134.40" xmlns="http://www.w3.org/2000/svg" xmlns:xlink="http://www.w3.org/1999/xlink">
<g id="graph0" class="graph" transform="scale(1 1) rotate(0) translate(4 130.396)">
<title>gtest</title>
<polygon fill="white" stroke="none" points="-4,4 -4,-130.396 370,-130.396 370,4 -4,4"/>
<text text-anchor="middle" x="58" y="-111.196" font-family="Times,serif" font-size="14.00">this is a test graph</text>
<!-- n1 -->
<g id="node1" class="node"><title>n1</title>
<polygon fill="none" stroke="blue" points="54,-49.3956 0,-49.3956 0,-13.3956 54,-13.3956 54,-49.3956"/>
<text text-anchor="middle" x="27" y="-27.6956" font-family="Times,serif" font-size="14.00">N1</text>
</g>
<!-- n2 -->
<g id="node2" class="node"><title>n2</title>
<polygon fill="none" stroke="yellow" points="158,-103.396 104,-103.396 104,-67.3956 158,-67.3956 158,-103.396"/>
<text text-anchor="middle" x="131" y="-81.6956" font-family="Times,serif" font-size="14.00">N2</text>
</g>
<!-- n1&#45;&gt;n2 -->
<g id="edge1" class="edge"><title>n1&#45;&gt;n2</title>
<path fill="none" stroke="blue" d="M54.0028,-45.1618C66.3756,-51.7121 81.3562,-59.643 94.7352,-66.726"/>
<polygon fill="blue" stroke="blue" points="93.2145,-69.8811 103.69,-71.4667 96.4897,-63.6946 93.2145,-69.8811"/>
<text text-anchor="middle" x="79" y="-65.1956" font-family="Times,serif" font-size="14.00">p1</text>
</g>
<!-- n3 -->
<g id="node3" class="node"><title>n3</title>
<polygon fill="orange" stroke="orange" points="158,-49.3956 104,-49.3956 104,-13.3956 158,-13.3956 158,-49.3956"/>
<text text-anchor="middle" x="131" y="-27.6956" font-family="Times,serif" font-size="14.00" fill="#000080">N3</text>
</g>
<!-- n1&#45;&gt;n3 -->
<g id="edge2" class="edge"><title>n1&#45;&gt;n3</title>
<path fill="none" stroke="red" d="M54.0028,-31.3956C66.0187,-31.3956 80.4941,-31.3956 93.5735,-31.3956"/>
<polygon fill="red" stroke="red" points="93.69,-34.8957 103.69,-31.3956 93.69,-27.8957 93.69,-34.8957"/>
<text text-anchor="middle" x="79" y="-35.1956" font-family="Times,serif" font-size="14.00">p2</text>
</g>
<!-- n4 -->
<g id="node4" class="node"><title>n4</title>
<polygon fill="none" stroke="green" points="262,-100.396 208,-100.396 208,-64.3956 262,-64.3956 262,-100.396"/>
<text text-anchor="middle" x="235" y="-78.6956" font-family="Times,serif" font-size="14.00">N4</text>
</g>
<!-- n3&#45;&gt;n4 -->
<g id="edge3" class="edge"><title>n3&#45;&gt;n4</title>
<path fill="none" stroke="black" d="M158.003,-44.397C170.376,-50.5834 185.356,-58.0737 198.735,-64.7632"/>
<polygon fill="black" stroke="black" points="197.18,-67.8989 207.69,-69.2406 200.311,-61.6379 197.18,-67.8989"/>
<text text-anchor="middle" x="183" y="-63.1956" font-family="Times,serif" font-size="14.00">p3</text>
</g>
<!-- n5 -->
<g id="node5" class="node"><title>n5</title>
<polygon fill="none" stroke="magenta" points="366,-49.3956 312,-49.3956 312,-13.3956 366,-13.3956 366,-49.3956"/>
<text text-anchor="middle" x="339" y="-27.6956" font-family="Times,serif" font-size="14.00">N5</text>
</g>
<!-- n3&#45;&gt;n5 -->
<g id="edge4" class="edge"><title>n3&#45;&gt;n5</title>
<path fill="none" stroke="blue" d="M158.09,-31.3956C194.442,-31.3956 260.49,-31.3956 301.65,-31.3956"/>
<polygon fill="blue" stroke="blue" points="301.797,-34.8957 311.797,-31.3956 301.797,-27.8957 301.797,-34.8957"/>
<text text-anchor="middle" x="235" y="-35.1956" font-family="Times,serif" font-size="14.00">p1</text>
</g>
<!-- n4&#45;&gt;n5 -->
<g id="edge5" class="edge"><title>n4&#45;&gt;n5</title>
<path fill="none" stroke="green" d="M262.003,-69.3942C274.376,-63.2078 289.356,-55.7174 302.735,-49.028"/>
<polygon fill="green" stroke="green" points="304.311,-52.1533 311.69,-44.5506 301.18,-45.8923 304.311,-52.1533"/>
<text text-anchor="middle" x="287" y="-63.1956" font-family="Times,serif" font-size="14.00">p4</text>
</g>
<!-- n5&#45;&gt;n1 -->
<g id="edge6" class="edge"><title>n5&#45;&gt;n1</title>
<path fill="none" stroke="blue" d="M311.894,-23.5455C268.52,-11.5833 178.959,8.52391 104,-4.39557 90.4986,-6.72259 76.2158,-11.215 63.7211,-15.8775"/>
<polygon fill="blue" stroke="blue" points="62.179,-12.7221 54.1331,-19.6152 64.7214,-19.2441 62.179,-12.7221"/>
<text text-anchor="middle" x="183" y="-4.19557" font-family="Times,serif" font-size="14.00">p1</text>
</g>
</g>
</svg>
