<?xml version="1.0" encoding="UTF-8" standalone="no"?>
<!DOCTYPE svg PUBLIC "-//W3C//DTD SVG 1.1//EN"
 "http://www.w3.org/Graphics/SVG/1.1/DTD/svg11.dtd">
<!-- Generated by graphviz version 2.36.0 (20140111.2315)
 -->
<!-- Title: gtest Pages: 1 -->
<svg width="380pt" height="134pt"
 viewBox="0.00 0.00 380.00 134.36" xmlns="http://www.w3.org/2000/svg" xmlns:xlink="http://www.w3.org/1999/xlink">
<g id="graph0" class="graph" transform="scale(1 1) rotate(0) translate(4 130.364)">
<title>gtest</title>
<polygon fill="white" stroke="none" points="-4,4 -4,-130.364 376,-130.364 376,4 -4,4"/>
<text text-anchor="middle" x="58.5" y="-111.164" font-family="Times New Roman,serif" font-size="14.00">this is a test graph</text>
<!-- n1 -->
<g id="node1" class="node"><title>n1</title>
<polygon fill="none" stroke="blue" points="54,-49.3644 0,-49.3644 0,-13.3644 54,-13.3644 54,-49.3644"/>
<text text-anchor="middle" x="27" y="-27.6644" font-family="Times New Roman,serif" font-size="14.00">N1</text>
</g>
<!-- n2 -->
<g id="node2" class="node"><title>n2</title>
<polygon fill="none" stroke="yellow" points="160,-103.364 106,-103.364 106,-67.3644 160,-67.3644 160,-103.364"/>
<text text-anchor="middle" x="133" y="-81.6644" font-family="Times New Roman,serif" font-size="14.00">N2</text>
</g>
<!-- n1&#45;&gt;n2 -->
<g id="edge1" class="edge"><title>n1&#45;&gt;n2</title>
<path fill="none" stroke="blue" d="M54.2436,-44.9909C67.0532,-51.642 82.6524,-59.7416 96.5074,-66.9355"/>
<polygon fill="blue" stroke="blue" points="95.277,-70.2403 105.765,-71.7423 98.5027,-64.0278 95.277,-70.2403"/>
<text text-anchor="middle" x="80" y="-65.1644" font-family="Times New Roman,serif" font-size="14.00">p1</text>
</g>
<!-- n3 -->
<g id="node3" class="node"><title>n3</title>
<polygon fill="orange" stroke="orange" points="160,-49.3644 106,-49.3644 106,-13.3644 160,-13.3644 160,-49.3644"/>
<text text-anchor="middle" x="133" y="-27.6644" font-family="Times New Roman,serif" font-size="14.00" fill="#000080">N3</text>
</g>
<!-- n1&#45;&gt;n3 -->
<g id="edge2" class="edge"><title>n1&#45;&gt;n3</title>
<path fill="none" stroke="red" d="M54.2436,-31.3644C66.8068,-31.3644 82.0535,-31.3644 95.7061,-31.3644"/>
<polygon fill="red" stroke="red" points="95.7648,-34.8645 105.765,-31.3644 95.7648,-27.8645 95.7648,-34.8645"/>
<text text-anchor="middle" x="80" y="-35.1644" font-family="Times New Roman,serif" font-size="14.00">p2</text>
</g>
<!-- n4 -->
<g id="node4" class="node"><title>n4</title>
<polygon fill="none" stroke="green" points="266,-100.364 212,-100.364 212,-64.3644 266,-64.3644 266,-100.364"/>
<text text-anchor="middle" x="239" y="-78.6644" font-family="Times New Roman,serif" font-size="14.00">N4</text>
</g>
<!-- n3&#45;&gt;n4 -->
<g id="edge3" class="edge"><title>n3&#45;&gt;n4</title>
<path fill="none" stroke="black" d="M160.244,-44.2338C173.053,-50.5155 188.652,-58.1651 202.507,-64.9593"/>
<polygon fill="black" stroke="black" points="201.245,-68.2386 211.765,-69.4991 204.327,-61.9536 201.245,-68.2386"/>
<text text-anchor="middle" x="186" y="-63.1644" font-family="Times New Roman,serif" font-size="14.00">p3</text>
</g>
<!-- n5 -->
<g id="node5" class="node"><title>n5</title>
<polygon fill="none" stroke="magenta" points="372,-49.3644 318,-49.3644 318,-13.3644 372,-13.3644 372,-49.3644"/>
<text text-anchor="middle" x="345" y="-27.6644" font-family="Times New Roman,serif" font-size="14.00">N5</text>
</g>
<!-- n3&#45;&gt;n5 -->
<g id="edge4" class="edge"><title>n3&#45;&gt;n5</title>
<path fill="none" stroke="blue" d="M160.172,-31.3644C197.371,-31.3644 265.677,-31.3644 307.736,-31.3644"/>
<polygon fill="blue" stroke="blue" points="307.829,-34.8645 317.829,-31.3644 307.829,-27.8645 307.829,-34.8645"/>
<text text-anchor="middle" x="239" y="-35.1644" font-family="Times New Roman,serif" font-size="14.00">p1</text>
</g>
<!-- n4&#45;&gt;n5 -->
<g id="edge5" class="edge"><title>n4&#45;&gt;n5</title>
<path fill="none" stroke="green" d="M266.244,-69.4949C279.053,-63.2133 294.652,-55.5637 308.507,-48.7694"/>
<polygon fill="green" stroke="green" points="310.327,-51.7752 317.765,-44.2297 307.245,-45.4902 310.327,-51.7752"/>
<text text-anchor="middle" x="292" y="-63.1644" font-family="Times New Roman,serif" font-size="14.00">p4</text>
</g>
<!-- n5&#45;&gt;n1 -->
<g id="edge6" class="edge"><title>n5&#45;&gt;n1</title>
<path fill="none" stroke="blue" d="M317.811,-23.6308C273.842,-11.7102 182.481,8.49829 106,-4.36439 91.811,-6.75071 76.7535,-11.4186 63.6914,-16.2112"/>
<polygon fill="blue" stroke="blue" points="62.2289,-13.0232 54.1391,-19.8647 64.7296,-19.5613 62.2289,-13.0232"/>
<text text-anchor="middle" x="186" y="-5.16439" font-family="Times New Roman,serif" font-size="14.00">p1</text>
</g>
</g>
</svg>
